<svg xmlns="http://www.w3.org/2000/svg" xmlns:xlink="http://www.w3.org/1999/xlink" contentStyleType="text/css" height="191px" preserveAspectRatio="none" style="width:5872px;height:191px;background:#FFFFFF;" version="1.1" viewBox="0 0 5872 191" width="5872px" zoomAndPan="magnify"><defs/><g><!--class AccionUsuarioStrategy--><g id="elem_AccionUsuarioStrategy"><rect codeLine="8" fill="#F1F1F1" height="58.5938" id="AccionUsuarioStrategy" style="stroke:#181818;stroke-width:0.5;" width="161" x="2912.5" y="7"/><text fill="#000000" font-family="sans-serif" font-size="14" font-style="italic" lengthAdjust="spacing" textLength="155" x="2915.5" y="24.9951">AccionUsuarioStrategy</text><line style="stroke:#181818;stroke-width:0.5;" x1="2913.5" x2="3072.5" y1="33.2969" y2="33.2969"/><line style="stroke:#181818;stroke-width:0.5;" x1="2913.5" x2="3072.5" y1="41.2969" y2="41.2969"/><text fill="#000000" font-family="sans-serif" font-size="14" lengthAdjust="spacing" textLength="124" x="2918.5" y="58.292">+ejecutarAccion()</text></g><!--class FuncionCrearUsuario--><g id="elem_FuncionCrearUsuario"><rect codeLine="12" fill="#F1F1F1" height="58.5938" id="FuncionCrearUsuario" style="stroke:#181818;stroke-width:0.5;" width="248" x="7" y="125.6"/><text fill="#000000" font-family="sans-serif" font-size="14" lengthAdjust="spacing" textLength="144" x="59" y="143.5951">FuncionCrearUsuario</text><line style="stroke:#181818;stroke-width:0.5;" x1="8" x2="254" y1="151.8969" y2="151.8969"/><line style="stroke:#181818;stroke-width:0.5;" x1="8" x2="254" y1="159.8969" y2="159.8969"/><text fill="#000000" font-family="sans-serif" font-size="14" lengthAdjust="spacing" textLength="236" x="13" y="176.892">+ejecutarAccion(Object... params)</text></g><!--class FuncionIngresarFechaFinDeProyecto--><g id="elem_FuncionIngresarFechaFinDeProyecto"><rect codeLine="16" fill="#F1F1F1" height="58.5938" id="FuncionIngresarFechaFinDeProyecto" style="stroke:#181818;stroke-width:0.5;" width="260" x="290" y="125.6"/><text fill="#000000" font-family="sans-serif" font-size="14" lengthAdjust="spacing" textLength="254" x="293" y="143.5951">FuncionIngresarFechaFinDeProyecto</text><line style="stroke:#181818;stroke-width:0.5;" x1="291" x2="549" y1="151.8969" y2="151.8969"/><line style="stroke:#181818;stroke-width:0.5;" x1="291" x2="549" y1="159.8969" y2="159.8969"/><text fill="#000000" font-family="sans-serif" font-size="14" lengthAdjust="spacing" textLength="236" x="296" y="176.892">+ejecutarAccion(Object... params)</text></g><!--class FuncionMostrarAdministradores--><g id="elem_FuncionMostrarAdministradores"><rect codeLine="20" fill="#F1F1F1" height="58.5938" id="FuncionMostrarAdministradores" style="stroke:#181818;stroke-width:0.5;" width="248" x="585" y="125.6"/><text fill="#000000" font-family="sans-serif" font-size="14" lengthAdjust="spacing" textLength="219" x="599.5" y="143.5951">FuncionMostrarAdministradores</text><line style="stroke:#181818;stroke-width:0.5;" x1="586" x2="832" y1="151.8969" y2="151.8969"/><line style="stroke:#181818;stroke-width:0.5;" x1="586" x2="832" y1="159.8969" y2="159.8969"/><text fill="#000000" font-family="sans-serif" font-size="14" lengthAdjust="spacing" textLength="236" x="591" y="176.892">+ejecutarAccion(Object... params)</text></g><!--class FuncionMostrarClientes--><g id="elem_FuncionMostrarClientes"><rect codeLine="24" fill="#F1F1F1" height="58.5938" id="FuncionMostrarClientes" style="stroke:#181818;stroke-width:0.5;" width="248" x="868" y="125.6"/><text fill="#000000" font-family="sans-serif" font-size="14" lengthAdjust="spacing" textLength="163" x="910.5" y="143.5951">FuncionMostrarClientes</text><line style="stroke:#181818;stroke-width:0.5;" x1="869" x2="1115" y1="151.8969" y2="151.8969"/><line style="stroke:#181818;stroke-width:0.5;" x1="869" x2="1115" y1="159.8969" y2="159.8969"/><text fill="#000000" font-family="sans-serif" font-size="14" lengthAdjust="spacing" textLength="236" x="874" y="176.892">+ejecutarAccion(Object... params)</text></g><!--class FuncionMostrarDatosDeProyectoDelUsuario--><g id="elem_FuncionMostrarDatosDeProyectoDelUsuario"><rect codeLine="28" fill="#F1F1F1" height="58.5938" id="FuncionMostrarDatosDeProyectoDelUsuario" style="stroke:#181818;stroke-width:0.5;" width="310" x="1151" y="125.6"/><text fill="#000000" font-family="sans-serif" font-size="14" lengthAdjust="spacing" textLength="304" x="1154" y="143.5951">FuncionMostrarDatosDeProyectoDelUsuario</text><line style="stroke:#181818;stroke-width:0.5;" x1="1152" x2="1460" y1="151.8969" y2="151.8969"/><line style="stroke:#181818;stroke-width:0.5;" x1="1152" x2="1460" y1="159.8969" y2="159.8969"/><text fill="#000000" font-family="sans-serif" font-size="14" lengthAdjust="spacing" textLength="236" x="1157" y="176.892">+ejecutarAccion(Object... params)</text></g><!--class FuncionMostrarDesarrolladoresAsignados--><g id="elem_FuncionMostrarDesarrolladoresAsignados"><rect codeLine="32" fill="#F1F1F1" height="58.5938" id="FuncionMostrarDesarrolladoresAsignados" style="stroke:#181818;stroke-width:0.5;" width="294" x="1496" y="125.6"/><text fill="#000000" font-family="sans-serif" font-size="14" lengthAdjust="spacing" textLength="288" x="1499" y="143.5951">FuncionMostrarDesarrolladoresAsignados</text><line style="stroke:#181818;stroke-width:0.5;" x1="1497" x2="1789" y1="151.8969" y2="151.8969"/><line style="stroke:#181818;stroke-width:0.5;" x1="1497" x2="1789" y1="159.8969" y2="159.8969"/><text fill="#000000" font-family="sans-serif" font-size="14" lengthAdjust="spacing" textLength="236" x="1502" y="176.892">+ejecutarAccion(Object... params)</text></g><!--class FuncionMostrarDesarrolladoresDisponibles--><g id="elem_FuncionMostrarDesarrolladoresDisponibles"><rect codeLine="36" fill="#F1F1F1" height="58.5938" id="FuncionMostrarDesarrolladoresDisponibles" style="stroke:#181818;stroke-width:0.5;" width="303" x="1824.5" y="125.6"/><text fill="#000000" font-family="sans-serif" font-size="14" lengthAdjust="spacing" textLength="297" x="1827.5" y="143.5951">FuncionMostrarDesarrolladoresDisponibles</text><line style="stroke:#181818;stroke-width:0.5;" x1="1825.5" x2="2126.5" y1="151.8969" y2="151.8969"/><line style="stroke:#181818;stroke-width:0.5;" x1="1825.5" x2="2126.5" y1="159.8969" y2="159.8969"/><text fill="#000000" font-family="sans-serif" font-size="14" lengthAdjust="spacing" textLength="236" x="1830.5" y="176.892">+ejecutarAccion(Object... params)</text></g><!--class FuncionMostrarGerentes--><g id="elem_FuncionMostrarGerentes"><rect codeLine="40" fill="#F1F1F1" height="58.5938" id="FuncionMostrarGerentes" style="stroke:#181818;stroke-width:0.5;" width="248" x="2162" y="125.6"/><text fill="#000000" font-family="sans-serif" font-size="14" lengthAdjust="spacing" textLength="172" x="2200" y="143.5951">FuncionMostrarGerentes</text><line style="stroke:#181818;stroke-width:0.5;" x1="2163" x2="2409" y1="151.8969" y2="151.8969"/><line style="stroke:#181818;stroke-width:0.5;" x1="2163" x2="2409" y1="159.8969" y2="159.8969"/><text fill="#000000" font-family="sans-serif" font-size="14" lengthAdjust="spacing" textLength="236" x="2168" y="176.892">+ejecutarAccion(Object... params)</text></g><!--class FuncionMostrarProyectos--><g id="elem_FuncionMostrarProyectos"><rect codeLine="44" fill="#F1F1F1" height="58.5938" id="FuncionMostrarProyectos" style="stroke:#181818;stroke-width:0.5;" width="248" x="2445" y="125.6"/><text fill="#000000" font-family="sans-serif" font-size="14" lengthAdjust="spacing" textLength="176" x="2481" y="143.5951">FuncionMostrarProyectos</text><line style="stroke:#181818;stroke-width:0.5;" x1="2446" x2="2692" y1="151.8969" y2="151.8969"/><line style="stroke:#181818;stroke-width:0.5;" x1="2446" x2="2692" y1="159.8969" y2="159.8969"/><text fill="#000000" font-family="sans-serif" font-size="14" lengthAdjust="spacing" textLength="236" x="2451" y="176.892">+ejecutarAccion(Object... params)</text></g><!--class FuncionNuevoEstadoDelProyecto--><g id="elem_FuncionNuevoEstadoDelProyecto"><rect codeLine="48" fill="#F1F1F1" height="58.5938" id="FuncionNuevoEstadoDelProyecto" style="stroke:#181818;stroke-width:0.5;" width="248" x="2728" y="125.6"/><text fill="#000000" font-family="sans-serif" font-size="14" lengthAdjust="spacing" textLength="231" x="2736.5" y="143.5951">FuncionNuevoEstadoDelProyecto</text><line style="stroke:#181818;stroke-width:0.5;" x1="2729" x2="2975" y1="151.8969" y2="151.8969"/><line style="stroke:#181818;stroke-width:0.5;" x1="2729" x2="2975" y1="159.8969" y2="159.8969"/><text fill="#000000" font-family="sans-serif" font-size="14" lengthAdjust="spacing" textLength="236" x="2734" y="176.892">+ejecutarAccion(Object... params)</text></g><!--class FuncionRegistrarDesarrollador--><g id="elem_FuncionRegistrarDesarrollador"><rect codeLine="52" fill="#F1F1F1" height="58.5938" id="FuncionRegistrarDesarrollador" style="stroke:#181818;stroke-width:0.5;" width="248" x="3011" y="125.6"/><text fill="#000000" font-family="sans-serif" font-size="14" lengthAdjust="spacing" textLength="209" x="3030.5" y="143.5951">FuncionRegistrarDesarrollador</text><line style="stroke:#181818;stroke-width:0.5;" x1="3012" x2="3258" y1="151.8969" y2="151.8969"/><line style="stroke:#181818;stroke-width:0.5;" x1="3012" x2="3258" y1="159.8969" y2="159.8969"/><text fill="#000000" font-family="sans-serif" font-size="14" lengthAdjust="spacing" textLength="236" x="3017" y="176.892">+ejecutarAccion(Object... params)</text></g><!--class FuncionSolicitarAprobarProyecto--><g id="elem_FuncionSolicitarAprobarProyecto"><rect codeLine="56" fill="#F1F1F1" height="58.5938" id="FuncionSolicitarAprobarProyecto" style="stroke:#181818;stroke-width:0.5;" width="248" x="3294" y="125.6"/><text fill="#000000" font-family="sans-serif" font-size="14" lengthAdjust="spacing" textLength="223" x="3306.5" y="143.5951">FuncionSolicitarAprobarProyecto</text><line style="stroke:#181818;stroke-width:0.5;" x1="3295" x2="3541" y1="151.8969" y2="151.8969"/><line style="stroke:#181818;stroke-width:0.5;" x1="3295" x2="3541" y1="159.8969" y2="159.8969"/><text fill="#000000" font-family="sans-serif" font-size="14" lengthAdjust="spacing" textLength="236" x="3300" y="176.892">+ejecutarAccion(Object... params)</text></g><!--class FuncionSolicitarDesasignarDesarrollador--><g id="elem_FuncionSolicitarDesasignarDesarrollador"><rect codeLine="60" fill="#F1F1F1" height="58.5938" id="FuncionSolicitarDesasignarDesarrollador" style="stroke:#181818;stroke-width:0.5;" width="284" x="3577" y="125.6"/><text fill="#000000" font-family="sans-serif" font-size="14" lengthAdjust="spacing" textLength="278" x="3580" y="143.5951">FuncionSolicitarDesasignarDesarrollador</text><line style="stroke:#181818;stroke-width:0.5;" x1="3578" x2="3860" y1="151.8969" y2="151.8969"/><line style="stroke:#181818;stroke-width:0.5;" x1="3578" x2="3860" y1="159.8969" y2="159.8969"/><text fill="#000000" font-family="sans-serif" font-size="14" lengthAdjust="spacing" textLength="236" x="3583" y="176.892">+ejecutarAccion(Object... params)</text></g><!--class FuncionSolicitarAsignarDesarrollador--><g id="elem_FuncionSolicitarAsignarDesarrollador"><rect codeLine="64" fill="#F1F1F1" height="58.5938" id="FuncionSolicitarAsignarDesarrollador" style="stroke:#181818;stroke-width:0.5;" width="257" x="3895.5" y="125.6"/><text fill="#000000" font-family="sans-serif" font-size="14" lengthAdjust="spacing" textLength="251" x="3898.5" y="143.5951">FuncionSolicitarAsignarDesarrollador</text><line style="stroke:#181818;stroke-width:0.5;" x1="3896.5" x2="4151.5" y1="151.8969" y2="151.8969"/><line style="stroke:#181818;stroke-width:0.5;" x1="3896.5" x2="4151.5" y1="159.8969" y2="159.8969"/><text fill="#000000" font-family="sans-serif" font-size="14" lengthAdjust="spacing" textLength="236" x="3901.5" y="176.892">+ejecutarAccion(Object... params)</text></g><!--class FuncionSolicitarEliminarDesarrollador--><g id="elem_FuncionSolicitarEliminarDesarrollador"><rect codeLine="68" fill="#F1F1F1" height="58.5938" id="FuncionSolicitarEliminarDesarrollador" style="stroke:#181818;stroke-width:0.5;" width="259" x="4187.5" y="125.6"/><text fill="#000000" font-family="sans-serif" font-size="14" lengthAdjust="spacing" textLength="253" x="4190.5" y="143.5951">FuncionSolicitarEliminarDesarrollador</text><line style="stroke:#181818;stroke-width:0.5;" x1="4188.5" x2="4445.5" y1="151.8969" y2="151.8969"/><line style="stroke:#181818;stroke-width:0.5;" x1="4188.5" x2="4445.5" y1="159.8969" y2="159.8969"/><text fill="#000000" font-family="sans-serif" font-size="14" lengthAdjust="spacing" textLength="236" x="4193.5" y="176.892">+ejecutarAccion(Object... params)</text></g><!--class FuncionSolicitarEliminarUsuario--><g id="elem_FuncionSolicitarEliminarUsuario"><rect codeLine="72" fill="#F1F1F1" height="58.5938" id="FuncionSolicitarEliminarUsuario" style="stroke:#181818;stroke-width:0.5;" width="248" x="4481" y="125.6"/><text fill="#000000" font-family="sans-serif" font-size="14" lengthAdjust="spacing" textLength="213" x="4498.5" y="143.5951">FuncionSolicitarEliminarUsuario</text><line style="stroke:#181818;stroke-width:0.5;" x1="4482" x2="4728" y1="151.8969" y2="151.8969"/><line style="stroke:#181818;stroke-width:0.5;" x1="4482" x2="4728" y1="159.8969" y2="159.8969"/><text fill="#000000" font-family="sans-serif" font-size="14" lengthAdjust="spacing" textLength="236" x="4487" y="176.892">+ejecutarAccion(Object... params)</text></g><!--class FuncionSolicitarFechaInicioProyecto--><g id="elem_FuncionSolicitarFechaInicioProyecto"><rect codeLine="76" fill="#F1F1F1" height="58.5938" id="FuncionSolicitarFechaInicioProyecto" style="stroke:#181818;stroke-width:0.5;" width="252" x="4764" y="125.6"/><text fill="#000000" font-family="sans-serif" font-size="14" lengthAdjust="spacing" textLength="246" x="4767" y="143.5951">FuncionSolicitarFechaInicioProyecto</text><line style="stroke:#181818;stroke-width:0.5;" x1="4765" x2="5015" y1="151.8969" y2="151.8969"/><line style="stroke:#181818;stroke-width:0.5;" x1="4765" x2="5015" y1="159.8969" y2="159.8969"/><text fill="#000000" font-family="sans-serif" font-size="14" lengthAdjust="spacing" textLength="236" x="4770" y="176.892">+ejecutarAccion(Object... params)</text></g><!--class FuncionSolicitarFinalizarProyecto--><g id="elem_FuncionSolicitarFinalizarProyecto"><rect codeLine="80" fill="#F1F1F1" height="58.5938" id="FuncionSolicitarFinalizarProyecto" style="stroke:#181818;stroke-width:0.5;" width="248" x="5051" y="125.6"/><text fill="#000000" font-family="sans-serif" font-size="14" lengthAdjust="spacing" textLength="224" x="5063" y="143.5951">FuncionSolicitarFinalizarProyecto</text><line style="stroke:#181818;stroke-width:0.5;" x1="5052" x2="5298" y1="151.8969" y2="151.8969"/><line style="stroke:#181818;stroke-width:0.5;" x1="5052" x2="5298" y1="159.8969" y2="159.8969"/><text fill="#000000" font-family="sans-serif" font-size="14" lengthAdjust="spacing" textLength="236" x="5057" y="176.892">+ejecutarAccion(Object... params)</text></g><!--class FuncionSolicitarNuevoProyecto--><g id="elem_FuncionSolicitarNuevoProyecto"><rect codeLine="84" fill="#F1F1F1" height="58.5938" id="FuncionSolicitarNuevoProyecto" style="stroke:#181818;stroke-width:0.5;" width="248" x="5334" y="125.6"/><text fill="#000000" font-family="sans-serif" font-size="14" lengthAdjust="spacing" textLength="213" x="5351.5" y="143.5951">FuncionSolicitarNuevoProyecto</text><line style="stroke:#181818;stroke-width:0.5;" x1="5335" x2="5581" y1="151.8969" y2="151.8969"/><line style="stroke:#181818;stroke-width:0.5;" x1="5335" x2="5581" y1="159.8969" y2="159.8969"/><text fill="#000000" font-family="sans-serif" font-size="14" lengthAdjust="spacing" textLength="236" x="5340" y="176.892">+ejecutarAccion(Object... params)</text></g><!--class FuncionSolicitarRechazarProyecto--><g id="elem_FuncionSolicitarRechazarProyecto"><rect codeLine="88" fill="#F1F1F1" height="58.5938" id="FuncionSolicitarRechazarProyecto" style="stroke:#181818;stroke-width:0.5;" width="248" x="5617" y="125.6"/><text fill="#000000" font-family="sans-serif" font-size="14" lengthAdjust="spacing" textLength="234" x="5624" y="143.5951">FuncionSolicitarRechazarProyecto</text><line style="stroke:#181818;stroke-width:0.5;" x1="5618" x2="5864" y1="151.8969" y2="151.8969"/><line style="stroke:#181818;stroke-width:0.5;" x1="5618" x2="5864" y1="159.8969" y2="159.8969"/><text fill="#000000" font-family="sans-serif" font-size="14" lengthAdjust="spacing" textLength="236" x="5623" y="176.892">+ejecutarAccion(Object... params)</text></g><!--reverse link AccionUsuarioStrategy to FuncionCrearUsuario--><g id="link_AccionUsuarioStrategy_FuncionCrearUsuario"><path codeLine="93" d="M2894.2011,38.3278 C2501.0611,42.6478 803.69,64.53 273,125.6 C267.26,126.26 261.4,127.03 255.49,127.88 " fill="none" id="AccionUsuarioStrategy-backto-FuncionCrearUsuario" style="stroke:#181818;stroke-width:1.0;stroke-dasharray:7.0,7.0;"/><polygon fill="none" points="2912.2,38.13,2894.1352,32.3281,2894.267,44.3274,2912.2,38.13" style="stroke:#181818;stroke-width:1.0;"/></g><!--reverse link AccionUsuarioStrategy to FuncionIngresarFechaFinDeProyecto--><g id="link_AccionUsuarioStrategy_FuncionIngresarFechaFinDeProyecto"><path codeLine="94" d="M2894.0125,38.8883 C2527.2125,44.9683 1037.37,72.49 568,125.6 C562.15,126.26 556.19,127.02 550.17,127.87 " fill="none" id="AccionUsuarioStrategy-backto-FuncionIngresarFechaFinDeProyecto" style="stroke:#181818;stroke-width:1.0;stroke-dasharray:7.0,7.0;"/><polygon fill="none" points="2912.01,38.59,2893.913,32.8891,2894.1119,44.8875,2912.01,38.59" style="stroke:#181818;stroke-width:1.0;"/></g><!--reverse link AccionUsuarioStrategy to FuncionMostrarAdministradores--><g id="link_AccionUsuarioStrategy_FuncionMostrarAdministradores"><path codeLine="95" d="M2894.264,39.3303 C2554.994,46.5003 1261.56,76.53 851,125.6 C845.13,126.3 839.15,127.11 833.12,128 " fill="none" id="AccionUsuarioStrategy-backto-FuncionMostrarAdministradores" style="stroke:#181818;stroke-width:1.0;stroke-dasharray:7.0,7.0;"/><polygon fill="none" points="2912.26,38.95,2894.1372,33.3317,2894.3908,45.329,2912.26,38.95" style="stroke:#181818;stroke-width:1.0;"/></g><!--reverse link AccionUsuarioStrategy to FuncionMostrarClientes--><g id="link_AccionUsuarioStrategy_FuncionMostrarClientes"><path codeLine="96" d="M2894.4101,36.7535 C2635.1501,36.0835 1817.61,41.14 1133,125.6 C1127.55,126.27 1121.99,127.03 1116.39,127.87 " fill="none" id="AccionUsuarioStrategy-backto-FuncionMostrarClientes" style="stroke:#181818;stroke-width:1.0;stroke-dasharray:7.0,7.0;"/><polygon fill="none" points="2912.41,36.8,2894.4256,30.7535,2894.3946,42.7535,2912.41,36.8" style="stroke:#181818;stroke-width:1.0;"/></g><!--reverse link AccionUsuarioStrategy to FuncionMostrarDatosDeProyectoDelUsuario--><g id="link_AccionUsuarioStrategy_FuncionMostrarDatosDeProyectoDelUsuario"><path codeLine="97" d="M2894.3354,39.5016 C2667.7754,45.0616 2024.64,65.23 1479,125.6 C1473.1,126.25 1467.1,126.97 1461.04,127.73 " fill="none" id="AccionUsuarioStrategy-backto-FuncionMostrarDatosDeProyectoDelUsuario" style="stroke:#181818;stroke-width:1.0;stroke-dasharray:7.0,7.0;"/><polygon fill="none" points="2912.33,39.06,2894.1882,33.5034,2894.4826,45.4998,2912.33,39.06" style="stroke:#181818;stroke-width:1.0;"/></g><!--reverse link AccionUsuarioStrategy to FuncionMostrarDesarrolladoresAsignados--><g id="link_AccionUsuarioStrategy_FuncionMostrarDesarrolladoresAsignados"><path codeLine="98" d="M2894.2275,41.4145 C2702.0775,49.9045 2220.94,74.6 1807,125.6 C1801.55,126.27 1796.01,127 1790.41,127.77 " fill="none" id="AccionUsuarioStrategy-backto-FuncionMostrarDesarrolladoresAsignados" style="stroke:#181818;stroke-width:1.0;stroke-dasharray:7.0,7.0;"/><polygon fill="none" points="2912.21,40.62,2893.9627,35.4204,2894.4924,47.4087,2912.21,40.62" style="stroke:#181818;stroke-width:1.0;"/></g><!--reverse link AccionUsuarioStrategy to FuncionMostrarDesarrolladoresDisponibles--><g id="link_AccionUsuarioStrategy_FuncionMostrarDesarrolladoresDisponibles"><path codeLine="99" d="M2894.1859,45.5686 C2743.1259,58.5286 2425.88,87.5 2145,125.6 C2139.4,126.36 2133.7,127.16 2127.94,127.99 " fill="none" id="AccionUsuarioStrategy-backto-FuncionMostrarDesarrolladoresDisponibles" style="stroke:#181818;stroke-width:1.0;stroke-dasharray:7.0,7.0;"/><polygon fill="none" points="2912.12,44.03,2893.673,39.5906,2894.6988,51.5467,2912.12,44.03" style="stroke:#181818;stroke-width:1.0;"/></g><!--reverse link AccionUsuarioStrategy to FuncionMostrarGerentes--><g id="link_AccionUsuarioStrategy_FuncionMostrarGerentes"><path codeLine="100" d="M2894.5468,51.4065 C2784.7668,67.3465 2600.04,95.03 2428,125.6 C2422.18,126.63 2416.24,127.71 2410.24,128.83 " fill="none" id="AccionUsuarioStrategy-backto-FuncionMostrarGerentes" style="stroke:#181818;stroke-width:1.0;stroke-dasharray:7.0,7.0;"/><polygon fill="none" points="2912.36,48.82,2893.6846,45.4687,2895.409,57.3442,2912.36,48.82" style="stroke:#181818;stroke-width:1.0;"/></g><!--reverse link AccionUsuarioStrategy to FuncionMostrarProyectos--><g id="link_AccionUsuarioStrategy_FuncionMostrarProyectos"><path codeLine="101" d="M2894.6443,64.3429 C2826.8643,82.9829 2747.05,104.93 2673.43,125.18 " fill="none" id="AccionUsuarioStrategy-backto-FuncionMostrarProyectos" style="stroke:#181818;stroke-width:1.0;stroke-dasharray:7.0,7.0;"/><polygon fill="none" points="2912,59.57,2893.0534,58.5577,2896.2353,70.1282,2912,59.57" style="stroke:#181818;stroke-width:1.0;"/></g><!--reverse link AccionUsuarioStrategy to FuncionNuevoEstadoDelProyecto--><g id="link_AccionUsuarioStrategy_FuncionNuevoEstadoDelProyecto"><path codeLine="102" d="M2944.6389,77.2914 C2922.7889,95.3614 2908.5,107.17 2886.63,125.26 " fill="none" id="AccionUsuarioStrategy-backto-FuncionNuevoEstadoDelProyecto" style="stroke:#181818;stroke-width:1.0;stroke-dasharray:7.0,7.0;"/><polygon fill="none" points="2958.51,65.82,2940.8151,72.6677,2948.4627,81.9151,2958.51,65.82" style="stroke:#181818;stroke-width:1.0;"/></g><!--reverse link AccionUsuarioStrategy to FuncionRegistrarDesarrollador--><g id="link_AccionUsuarioStrategy_FuncionRegistrarDesarrollador"><path codeLine="103" d="M3041.6495,77.2448 C3063.6495,95.3148 3078.1,107.17 3100.13,125.26 " fill="none" id="AccionUsuarioStrategy-backto-FuncionRegistrarDesarrollador" style="stroke:#181818;stroke-width:1.0;stroke-dasharray:7.0,7.0;"/><polygon fill="none" points="3027.74,65.82,3037.8413,81.8813,3045.4578,72.6083,3027.74,65.82" style="stroke:#181818;stroke-width:1.0;"/></g><!--reverse link AccionUsuarioStrategy to FuncionSolicitarAprobarProyecto--><g id="link_AccionUsuarioStrategy_FuncionSolicitarAprobarProyecto"><path codeLine="104" d="M3091.2982,64.2638 C3159.2182,82.9038 3239.33,104.88 3313.2,125.14 " fill="none" id="AccionUsuarioStrategy-backto-FuncionSolicitarAprobarProyecto" style="stroke:#181818;stroke-width:1.0;stroke-dasharray:7.0,7.0;"/><polygon fill="none" points="3073.94,59.5,3089.7102,70.0498,3092.8861,58.4777,3073.94,59.5" style="stroke:#181818;stroke-width:1.0;"/></g><!--reverse link AccionUsuarioStrategy to FuncionSolicitarDesasignarDesarrollador--><g id="link_AccionUsuarioStrategy_FuncionSolicitarDesasignarDesarrollador"><path codeLine="105" d="M3091.4894,52.0396 C3201.3594,68.5796 3386.34,96.86 3559,125.6 C3564.84,126.57 3570.8,127.57 3576.83,128.59 " fill="none" id="AccionUsuarioStrategy-backto-FuncionSolicitarDesasignarDesarrollador" style="stroke:#181818;stroke-width:1.0;stroke-dasharray:7.0,7.0;"/><polygon fill="none" points="3073.69,49.36,3090.5963,57.9727,3092.3826,46.1064,3073.69,49.36" style="stroke:#181818;stroke-width:1.0;"/></g><!--reverse link AccionUsuarioStrategy to FuncionSolicitarAsignarDesarrollador--><g id="link_AccionUsuarioStrategy_FuncionSolicitarAsignarDesarrollador"><path codeLine="106" d="M3091.7931,44.1591 C3247.8131,55.4491 3583.14,82.41 3878,125.6 C3883.62,126.42 3889.35,127.31 3895.14,128.25 " fill="none" id="AccionUsuarioStrategy-backto-FuncionSolicitarAsignarDesarrollador" style="stroke:#181818;stroke-width:1.0;stroke-dasharray:7.0,7.0;"/><polygon fill="none" points="3073.84,42.86,3091.36,50.1435,3092.2261,38.1748,3073.84,42.86" style="stroke:#181818;stroke-width:1.0;"/></g><!--reverse link AccionUsuarioStrategy to FuncionSolicitarEliminarDesarrollador--><g id="link_AccionUsuarioStrategy_FuncionSolicitarEliminarDesarrollador"><path codeLine="107" d="M3091.9464,40.8503 C3283.2964,48.3003 3760.21,70.97 4170,125.6 C4175.67,126.35 4181.45,127.19 4187.28,128.08 " fill="none" id="AccionUsuarioStrategy-backto-FuncionSolicitarEliminarDesarrollador" style="stroke:#181818;stroke-width:1.0;stroke-dasharray:7.0,7.0;"/><polygon fill="none" points="3073.96,40.15,3091.7129,46.8457,3092.1798,34.8548,3073.96,40.15" style="stroke:#181818;stroke-width:1.0;"/></g><!--reverse link AccionUsuarioStrategy to FuncionSolicitarEliminarUsuario--><g id="link_AccionUsuarioStrategy_FuncionSolicitarEliminarUsuario"><path codeLine="108" d="M3091.8879,38.5173 C3314.5479,41.9473 3936.91,57.22 4464,125.6 C4469.45,126.3 4475,127.1 4480.6,127.96 " fill="none" id="AccionUsuarioStrategy-backto-FuncionSolicitarEliminarUsuario" style="stroke:#181818;stroke-width:1.0;stroke-dasharray:7.0,7.0;"/><polygon fill="none" points="3073.89,38.24,3091.7954,44.5165,3091.9803,32.518,3073.89,38.24" style="stroke:#181818;stroke-width:1.0;"/></g><!--reverse link AccionUsuarioStrategy to FuncionSolicitarFechaInicioProyecto--><g id="link_AccionUsuarioStrategy_FuncionSolicitarFechaInicioProyecto"><path codeLine="109" d="M3091.7299,37.3026 C3341.3899,38.0326 4104.8,46.86 4746,125.6 C4751.82,126.31 4757.75,127.12 4763.73,128.02 " fill="none" id="AccionUsuarioStrategy-backto-FuncionSolicitarFechaInicioProyecto" style="stroke:#181818;stroke-width:1.0;stroke-dasharray:7.0,7.0;"/><polygon fill="none" points="3073.73,37.25,3091.7124,43.3026,3091.7475,31.3027,3073.73,37.25" style="stroke:#181818;stroke-width:1.0;"/></g><!--reverse link AccionUsuarioStrategy to FuncionSolicitarFinalizarProyecto--><g id="link_AccionUsuarioStrategy_FuncionSolicitarFinalizarProyecto"><path codeLine="110" d="M3091.7951,39.5403 C3421.0451,47.2303 4644.39,78.36 5034,125.6 C5039.45,126.26 5045.01,127.01 5050.61,127.84 " fill="none" id="AccionUsuarioStrategy-backto-FuncionSolicitarFinalizarProyecto" style="stroke:#181818;stroke-width:1.0;stroke-dasharray:7.0,7.0;"/><polygon fill="none" points="3073.8,39.12,3091.655,45.5387,3091.9352,33.5419,3073.8,39.12" style="stroke:#181818;stroke-width:1.0;"/></g><!--reverse link AccionUsuarioStrategy to FuncionSolicitarNuevoProyecto--><g id="link_AccionUsuarioStrategy_FuncionSolicitarNuevoProyecto"><path codeLine="111" d="M3091.8573,38.9636 C3448.8473,45.1836 4867.96,72.78 5316,125.6 C5321.74,126.27 5327.6,127.06 5333.5,127.92 " fill="none" id="AccionUsuarioStrategy-backto-FuncionSolicitarNuevoProyecto" style="stroke:#181818;stroke-width:1.0;stroke-dasharray:7.0,7.0;"/><polygon fill="none" points="3073.86,38.65,3091.7527,44.9627,3091.9618,32.9645,3073.86,38.65" style="stroke:#181818;stroke-width:1.0;"/></g><!--reverse link AccionUsuarioStrategy to FuncionSolicitarRechazarProyecto--><g id="link_AccionUsuarioStrategy_FuncionSolicitarRechazarProyecto"><path codeLine="112" d="M3091.8886,38.4878 C3475.0586,43.3378 5092.12,66.9 5599,125.6 C5604.74,126.26 5610.6,127.04 5616.51,127.89 " fill="none" id="AccionUsuarioStrategy-backto-FuncionSolicitarRechazarProyecto" style="stroke:#181818;stroke-width:1.0;stroke-dasharray:7.0,7.0;"/><polygon fill="none" points="3073.89,38.26,3091.8126,44.4873,3091.9645,32.4883,3073.89,38.26" style="stroke:#181818;stroke-width:1.0;"/></g><!--SRC=[jPN1Kjim48RFrLFe2DEP30_GIuQGJWwq39a-W2mlpeAocrd9xG3btP5D0o7OZ6ovDydQ__FkIlgrmHAqHR4EbBz3sXanMxrbOhiHte8EKX-kM6UyduSWMDG1LfPfZG-Wpmv2X6igBGk1lFjU67jNjOlQicE9Q4C-hW65Wp2_CIN_GQhqZN4Ub48A83V6WfvRYqo_V6q4UHtb0QhxHwNrLxW5MmSZBn4df-f9gJPLlQof-NGkOEIVyb5zEHRyBE8yp6OptIRXJ_K7meeg0Mza2NPZbaWBk1A-ZwgHl4lsiGAPbriaR8ObHtuMwznXx6KcP642-xVY5k2oshQdDgqJTkwbpBd7YkBGJmbTeDynOU4oE_0T9B-D-_wDfFoeuJTV-10hYpkGTzAkeSAF_Hh7MhD3Yura9roybPb9Qp9hZyIqEKwFl70Ox-l_OMRTirTQwqyhYXEUQ7EYsHc73vDjTdks9s9TDzMEIKrrFYRwszyOr_5c98JtFn09ukxN85suj_vqHQ_F3q3qcFfeme63fpFsTfskUFNc14ct4IS8krqtGTXdiKEaFNuwwE-P-awd70D8FvQVUU0W-R7X3H6_SxSXmcChUmO0]--></g></svg>