<svg xmlns="http://www.w3.org/2000/svg" xmlns:xlink="http://www.w3.org/1999/xlink" contentStyleType="text/css" height="219px" preserveAspectRatio="none" style="width:3509px;height:219px;background:#FFFFFF;" version="1.1" viewBox="0 0 3509 219" width="3509px" zoomAndPan="magnify"><defs/><g><!--cluster Sistema-SoftDev--><g id="cluster_Sistema-SoftDev"><path d="M8.5,106.8 L139.5,106.8 A3.75,3.75 0 0 1 142,109.3 L149,129.0969 L3499.5,129.0969 A2.5,2.5 0 0 1 3502,131.5969 L3502,209.91 A2.5,2.5 0 0 1 3499.5,212.41 L8.5,212.41 A2.5,2.5 0 0 1 6,209.91 L6,109.3 A2.5,2.5 0 0 1 8.5,106.8 " fill="none" style="stroke:#000000;stroke-width:1.5;"/><line style="stroke:#000000;stroke-width:1.5;" x1="6" x2="149" y1="129.0969" y2="129.0969"/><text fill="#000000" font-family="sans-serif" font-size="14" font-weight="bold" lengthAdjust="spacing" textLength="130" x="10" y="121.7951">Sistema-SoftDev</text></g><g id="elem_Nuevo usuario"><ellipse cx="865.9973" cy="169.1015" fill="#F1F1F1" rx="72.3073" ry="16.8615" style="stroke:#181818;stroke-width:0.5;"/><text fill="#000000" font-family="sans-serif" font-size="14" lengthAdjust="spacing" textLength="99" x="813.4973" y="172.849">Nuevo usuario</text></g><g id="elem_Borrar usuario"><ellipse cx="1045.0029" cy="169.1006" fill="#F1F1F1" rx="71.5529" ry="16.7106" style="stroke:#181818;stroke-width:0.5;"/><text fill="#000000" font-family="sans-serif" font-size="14" lengthAdjust="spacing" textLength="97" x="993.5029" y="172.8481">Borrar usuario</text></g><g id="elem_Nuevo desarrollador"><ellipse cx="1240.0018" cy="169.1004" fill="#F1F1F1" rx="88.3518" ry="20.0704" style="stroke:#181818;stroke-width:0.5;"/><text fill="#000000" font-family="sans-serif" font-size="14" lengthAdjust="spacing" textLength="138" x="1171.0018" y="171.947">Nuevo desarrollador</text></g><g id="elem_Borrar desarrollador"><ellipse cx="1451.0044" cy="169.1049" fill="#F1F1F1" rx="87.4744" ry="19.8949" style="stroke:#181818;stroke-width:0.5;"/><text fill="#000000" font-family="sans-serif" font-size="14" lengthAdjust="spacing" textLength="136" x="1383.0044" y="171.9516">Borrar desarrollador</text></g><g id="elem_Asignar desarrollador"><ellipse cx="1665.0031" cy="169.0986" fill="#F1F1F1" rx="91.4431" ry="20.6886" style="stroke:#181818;stroke-width:0.5;"/><text fill="#000000" font-family="sans-serif" font-size="14" lengthAdjust="spacing" textLength="145" x="1592.5031" y="171.9453">Asignar desarrollador</text></g><g id="elem_Desasignar desarrollador"><ellipse cx="1894.9977" cy="169.1035" fill="#F1F1F1" rx="103.6177" ry="23.1235" style="stroke:#181818;stroke-width:0.5;"/><text fill="#000000" font-family="sans-serif" font-size="14" lengthAdjust="spacing" textLength="172" x="1808.9977" y="171.9502">Desasignar desarrollador</text></g><g id="elem_Ver clientes"><ellipse cx="2098.9955" cy="169.1031" fill="#F1F1F1" rx="65.7655" ry="15.5531" style="stroke:#181818;stroke-width:0.5;"/><text fill="#000000" font-family="sans-serif" font-size="14" lengthAdjust="spacing" textLength="81" x="2055.4955" y="172.8507">Ver clientes</text></g><g id="elem_Ver gerentes"><ellipse cx="2269.004" cy="169.1028" fill="#F1F1F1" rx="68.964" ry="16.1928" style="stroke:#181818;stroke-width:0.5;"/><text fill="#000000" font-family="sans-serif" font-size="14" lengthAdjust="spacing" textLength="90" x="2221.004" y="172.8504">Ver gerentes</text></g><g id="elem_Ver administradores"><ellipse cx="110.0018" cy="169.1004" fill="#F1F1F1" rx="88.3518" ry="20.0704" style="stroke:#181818;stroke-width:0.5;"/><text fill="#000000" font-family="sans-serif" font-size="14" lengthAdjust="spacing" textLength="138" x="41.0018" y="171.947">Ver administradores</text></g><g id="elem_Ver desarrolladores disponibles"><ellipse cx="358.0026" cy="169.0965" fill="#F1F1F1" rx="124.5326" ry="27.3065" style="stroke:#181818;stroke-width:0.5;"/><text fill="#000000" font-family="sans-serif" font-size="14" lengthAdjust="spacing" textLength="217" x="249.5026" y="171.9432">Ver desarrolladores disponibles</text></g><g id="elem_Ver desarrolladores asignados"><ellipse cx="638.0017" cy="169.1043" fill="#F1F1F1" rx="120.7717" ry="26.5543" style="stroke:#181818;stroke-width:0.5;"/><text fill="#000000" font-family="sans-serif" font-size="14" lengthAdjust="spacing" textLength="209" x="533.5017" y="171.951">Ver desarrolladores asignados</text></g><g id="elem_Consultar proyectos"><ellipse cx="2657.0015" cy="169.0983" fill="#F1F1F1" rx="88.7915" ry="20.1583" style="stroke:#181818;stroke-width:0.5;"/><text fill="#000000" font-family="sans-serif" font-size="14" lengthAdjust="spacing" textLength="139" x="2587.5015" y="171.945">Consultar proyectos</text></g><g id="elem_Solicitar proyecto"><ellipse cx="2453.0039" cy="169.0968" fill="#F1F1F1" rx="79.7839" ry="18.3568" style="stroke:#181818;stroke-width:0.5;"/><text fill="#000000" font-family="sans-serif" font-size="14" lengthAdjust="spacing" textLength="118" x="2392.2556" y="172.5013">Solicitar proyecto</text></g><g id="elem_Ver proyectos solicitados"><ellipse cx="3381.9951" cy="169.095" fill="#F1F1F1" rx="104.0751" ry="23.215" style="stroke:#181818;stroke-width:0.5;"/><text fill="#000000" font-family="sans-serif" font-size="14" lengthAdjust="spacing" textLength="173" x="3295.4951" y="171.9417">Ver proyectos solicitados</text></g><g id="elem_Aprobar proyecto"><ellipse cx="2957.9963" cy="169.0993" fill="#F1F1F1" rx="80.1963" ry="18.4393" style="stroke:#181818;stroke-width:0.5;"/><text fill="#000000" font-family="sans-serif" font-size="14" lengthAdjust="spacing" textLength="119" x="2896.9039" y="172.4579">Aprobar proyecto</text></g><g id="elem_Rechazar proyecto"><ellipse cx="3157.9992" cy="169.1018" fill="#F1F1F1" rx="84.8592" ry="19.3718" style="stroke:#181818;stroke-width:0.5;"/><text fill="#000000" font-family="sans-serif" font-size="14" lengthAdjust="spacing" textLength="130" x="3092.9992" y="171.9485">Rechazar proyecto</text></g><g id="elem_Salir"><ellipse cx="2812.0043" cy="169.1036" fill="#F1F1F1" rx="31.2843" ry="14.5236" style="stroke:#181818;stroke-width:0.5;"/><text fill="#000000" font-family="sans-serif" font-size="14" lengthAdjust="spacing" textLength="28" x="2798.0043" y="171.9503">Salir</text></g><!--entity admin--><g id="elem_admin"><ellipse cx="1346" cy="14" fill="#F1F1F1" rx="8" ry="8" style="stroke:#181818;stroke-width:0.5;"/><path d="M1346,22 L1346,49 M1333,30 L1359,30 M1346,49 L1333,64 M1346,49 L1359,64 " fill="none" style="stroke:#181818;stroke-width:0.5;"/><text fill="#000000" font-family="sans-serif" font-size="14" lengthAdjust="spacing" textLength="95" x="1298.5" y="78.4951">Administrador</text></g><!--entity cli--><g id="elem_cli"><ellipse cx="2657" cy="14" fill="#F1F1F1" rx="8" ry="8" style="stroke:#181818;stroke-width:0.5;"/><path d="M2657,22 L2657,49 M2644,30 L2670,30 M2657,49 L2644,64 M2657,49 L2670,64 " fill="none" style="stroke:#181818;stroke-width:0.5;"/><text fill="#000000" font-family="sans-serif" font-size="14" lengthAdjust="spacing" textLength="48" x="2633" y="78.4951">Cliente</text></g><!--entity ger--><g id="elem_ger"><ellipse cx="3058" cy="14" fill="#F1F1F1" rx="8" ry="8" style="stroke:#181818;stroke-width:0.5;"/><path d="M3058,22 L3058,49 M3045,30 L3071,30 M3058,49 L3045,64 M3058,49 L3071,64 " fill="none" style="stroke:#181818;stroke-width:0.5;"/><text fill="#000000" font-family="sans-serif" font-size="14" lengthAdjust="spacing" textLength="57" x="3029.5" y="78.4951">Gerente</text></g><!--link cli to Consultar proyectos--><g id="link_cli_Consultar proyectos"><path d="M2657,82.02 C2657,104.02 2657,124.94 2657,142.75 " fill="none" id="cli-to-Consultar proyectos" style="stroke:#181818;stroke-width:1.0;"/><polygon fill="#181818" points="2657,148.75,2661,139.75,2657,143.75,2653,139.75,2657,148.75" style="stroke:#181818;stroke-width:1.0;"/></g><!--link cli to Solicitar proyecto--><g id="link_cli_Solicitar proyecto"><path d="M2632.9,55.74 C2611.06,66.08 2578.23,82.33 2551,98.8 C2523.9,115.19 2499.2244,132.9425 2479.7544,147.5925 " fill="none" id="cli-to-Solicitar proyecto" style="stroke:#181818;stroke-width:1.0;"/><polygon fill="#181818" points="2474.96,151.2,2484.5566,148.985,2478.9553,148.1938,2479.7466,142.5925,2474.96,151.2" style="stroke:#181818;stroke-width:1.0;"/></g><!--link cli to Salir--><g id="link_cli_Salir"><path d="M2681.29,53.15 C2704.16,62 2738.48,77.55 2763,98.8 C2781.6,114.91 2793.9045,134.2294 2802.2145,149.3794 " fill="none" id="cli-to-Salir" style="stroke:#181818;stroke-width:1.0;"/><polygon fill="#181818" points="2805.1,154.64,2804.2788,144.8254,2802.6954,150.2562,2797.2647,148.6728,2805.1,154.64" style="stroke:#181818;stroke-width:1.0;"/></g><!--link admin to Nuevo usuario--><g id="link_admin_Nuevo usuario"><path d="M1298.17,48.21 C1208.1,55.42 1016.91,73.25 956,98.8 C926.36,111.23 902.2638,131.7391 885.5638,148.0391 " fill="none" id="admin-to-Nuevo usuario" style="stroke:#181818;stroke-width:1.0;"/><polygon fill="#181818" points="881.27,152.23,890.5046,148.8061,884.8481,148.7376,884.9167,143.0811,881.27,152.23" style="stroke:#181818;stroke-width:1.0;"/></g><!--link admin to Borrar usuario--><g id="link_admin_Borrar usuario"><path d="M1298.16,51.11 C1253.86,58.4 1187.04,72.79 1134,98.8 C1105.51,112.76 1081.8122,132.701 1065.0322,148.471 " fill="none" id="admin-to-Borrar usuario" style="stroke:#181818;stroke-width:1.0;"/><polygon fill="#181818" points="1060.66,152.58,1069.9576,149.3313,1064.3035,149.1558,1064.4789,143.5017,1060.66,152.58" style="stroke:#181818;stroke-width:1.0;"/></g><!--link admin to Nuevo desarrollador--><g id="link_admin_Nuevo desarrollador"><path d="M1313.91,82.02 C1294.9,104.17 1275.5183,126.7375 1260.2283,144.5475 " fill="none" id="admin-to-Nuevo desarrollador" style="stroke:#181818;stroke-width:1.0;"/><polygon fill="#181818" points="1256.32,149.1,1265.2175,144.8768,1259.5769,145.3063,1259.1475,139.6657,1256.32,149.1" style="stroke:#181818;stroke-width:1.0;"/></g><!--link admin to Borrar desarrollador--><g id="link_admin_Borrar desarrollador"><path d="M1377.79,82.02 C1396.62,104.17 1415.8039,126.7186 1430.9439,144.5286 " fill="none" id="admin-to-Borrar desarrollador" style="stroke:#181818;stroke-width:1.0;"/><polygon fill="#181818" points="1434.83,149.1,1432.0485,139.6521,1431.5916,145.2905,1425.9532,144.8336,1434.83,149.1" style="stroke:#181818;stroke-width:1.0;"/></g><!--link admin to Asignar desarrollador--><g id="link_admin_Asignar desarrollador"><path d="M1393.69,52.52 C1437.2,60.71 1502.64,75.64 1556,98.8 C1586.65,112.1 1613.6956,129.8637 1635.0056,145.3437 " fill="none" id="admin-to-Asignar desarrollador" style="stroke:#181818;stroke-width:1.0;"/><polygon fill="#181818" points="1639.86,148.87,1634.9293,140.3443,1635.8147,145.9314,1630.2275,146.8168,1639.86,148.87" style="stroke:#181818;stroke-width:1.0;"/></g><!--link admin to Desasignar desarrollador--><g id="link_admin_Desasignar desarrollador"><path d="M1393.89,44.65 C1474.48,45.96 1641.36,54.4 1774,98.8 C1807.29,109.94 1836.7169,127.3331 1860.2869,143.2431 " fill="none" id="admin-to-Desasignar desarrollador" style="stroke:#181818;stroke-width:1.0;"/><polygon fill="#181818" points="1865.26,146.6,1860.0383,138.2493,1861.1158,143.8026,1855.5625,144.8801,1865.26,146.6" style="stroke:#181818;stroke-width:1.0;"/></g><!--link admin to Ver gerentes--><g id="link_admin_Ver gerentes"><path d="M1393.75,46.07 C1560.16,51.27 2108.48,70.39 2182,98.8 C2212.08,110.42 2235.8183,132.0098 2251.5483,148.6498 " fill="none" id="admin-to-Ver gerentes" style="stroke:#181818;stroke-width:1.0;"/><polygon fill="#181818" points="2255.67,153.01,2252.3942,143.7219,2252.2352,149.3765,2246.5806,149.2175,2255.67,153.01" style="stroke:#181818;stroke-width:1.0;"/></g><!--link admin to Ver administradores--><g id="link_admin_Ver administradores"><path d="M1298.01,45.46 C1095.93,49.09 319.87,65.13 216,98.8 C183.58,109.31 156.1907,128.6846 135.9707,145.3446 " fill="none" id="admin-to-Ver administradores" style="stroke:#181818;stroke-width:1.0;"/><polygon fill="#181818" points="131.34,149.16,140.8296,146.5241,135.1989,145.9805,135.7424,140.3498,131.34,149.16" style="stroke:#181818;stroke-width:1.0;"/></g><!--link admin to Ver clientes--><g id="link_admin_Ver clientes"><path d="M1393.56,44.78 C1527.09,45.74 1902.99,52.58 2016,98.8 C2045.19,110.73 2067.8014,132.3855 2082.6614,148.9355 " fill="none" id="admin-to-Ver clientes" style="stroke:#181818;stroke-width:1.0;"/><polygon fill="#181818" points="2086.67,153.4,2083.6335,144.0309,2083.3295,149.6796,2077.6808,149.3757,2086.67,153.4" style="stroke:#181818;stroke-width:1.0;"/></g><!--link admin to Ver desarrolladores disponibles--><g id="link_admin_Ver desarrolladores disponibles"><path d="M1298.27,45.27 C1142.84,47.69 652.49,58.4 500,98.8 C463.94,108.35 431.3236,124.3405 403.7936,140.0205 " fill="none" id="admin-to-Ver desarrolladores disponibles" style="stroke:#181818;stroke-width:1.0;"/><polygon fill="#181818" points="398.58,142.99,408.3801,142.0115,402.9247,140.5154,404.4208,135.06,398.58,142.99" style="stroke:#181818;stroke-width:1.0;"/></g><!--link admin to Ver desarrolladores asignados--><g id="link_admin_Ver desarrolladores asignados"><path d="M1298.37,46.91 C1179.78,52.9 873.8,70.67 776,98.8 C740.83,108.91 709.1179,124.9357 682.3379,140.4957 " fill="none" id="admin-to-Ver desarrolladores asignados" style="stroke:#181818;stroke-width:1.0;"/><polygon fill="#181818" points="677.15,143.51,686.9413,142.4471,681.4732,140.9981,682.9223,135.53,677.15,143.51" style="stroke:#181818;stroke-width:1.0;"/></g><!--link admin to Salir--><g id="link_admin_Salir"><path d="M1393.63,45.89 C1637.09,52.32 2732.23,82.11 2763,98.8 C2785.28,110.88 2797.3725,132.4969 2804.4625,149.0069 " fill="none" id="admin-to-Salir" style="stroke:#181818;stroke-width:1.0;"/><polygon fill="#181818" points="2806.83,154.52,2806.9541,144.6719,2804.857,149.9257,2799.6033,147.8287,2806.83,154.52" style="stroke:#181818;stroke-width:1.0;"/></g><!--link ger to Ver proyectos solicitados--><g id="link_ger_Ver proyectos solicitados"><path d="M3086.85,49.97 C3126.74,57.86 3200.54,74.41 3260,98.8 C3291.78,111.83 3320.4823,128.3336 3344.4223,143.4036 " fill="none" id="ger-to-Ver proyectos solicitados" style="stroke:#181818;stroke-width:1.0;"/><polygon fill="#181818" points="3349.5,146.6,3344.0143,138.4203,3345.2686,143.9364,3339.7525,145.1906,3349.5,146.6" style="stroke:#181818;stroke-width:1.0;"/></g><!--link ger to Aprobar proyecto--><g id="link_ger_Aprobar proyecto"><path d="M3029.08,80.36 C3010.39,103.43 2990.6675,127.7784 2975.9275,145.9684 " fill="none" id="ger-to-Aprobar proyecto" style="stroke:#181818;stroke-width:1.0;"/><polygon fill="#181818" points="2972.15,150.63,2980.924,146.1559,2975.2979,146.7453,2974.7085,141.1193,2972.15,150.63" style="stroke:#181818;stroke-width:1.0;"/></g><!--link ger to Rechazar proyecto--><g id="link_ger_Rechazar proyecto"><path d="M3086.92,80.36 C3105.27,103 3124.4626,126.7083 3139.2426,144.9483 " fill="none" id="ger-to-Rechazar proyecto" style="stroke:#181818;stroke-width:1.0;"/><polygon fill="#181818" points="3143.02,149.61,3140.4617,140.0992,3139.8722,145.7253,3134.2461,145.1357,3143.02,149.61" style="stroke:#181818;stroke-width:1.0;"/></g><!--link ger to Salir--><g id="link_ger_Salir"><path d="M3029.17,46.39 C2988.12,50.15 2912.07,61.94 2860,98.8 C2839.81,113.09 2827.9355,133.3009 2820.4455,149.0609 " fill="none" id="ger-to-Salir" style="stroke:#181818;stroke-width:1.0;"/><polygon fill="#181818" points="2817.87,154.48,2825.3459,148.0683,2820.0162,149.9641,2818.1204,144.6343,2817.87,154.48" style="stroke:#181818;stroke-width:1.0;"/></g><!--SRC=[ZPB1JiCm38RlUOfe9theAo2LJUB6WKhSlTIKYAoUd7OI8DwTP5tNf4atZl7tEtR-_A1wObar1zrfspCqxWHMWYy8ECEjqTZrwClAw4ln6NagjiX2745zGekoThVW0SgQtliTddw4b8D51HRbvcN04xdZ0Anf4v8dOWREeh6fGGlCP8nVCDUwBgYiRhkRYfqZTqLloFxv_j4s0UteHWeWD3R3etbePQFjaJgzD__GZZit52ktrDd1zEujHwOlT9yLyvgCLZhaoQ1hexGNyN98vIJxjIjUKNt0zngjmMZdxAyGparPbe_o8RDoCTDquH3wsmeXpZwFfIXbHKZYb1LfK-HmhdLTa4rPf5XBMIGAmvI0HPWIFiKp0JTITbTxJLcad7ntkywjsTmKisQPcW0bcGdOEEiF]--></g></svg>